<?xml version="1.0"?>
<svg xmlns="http://www.w3.org/2000/svg" xmlns:xlink="http://www.w3.org/1999/xlink" xmlns:svgjs="http://svgjs.com/svgjs" version="1.1" width="512" height="512" x="0" y="0" viewBox="0 0 464 464" style="enable-background:new 0 0 512 512" xml:space="preserve" class=""><g>
<polygon xmlns="http://www.w3.org/2000/svg" style="" points="88,272 0,312 88,352 176,312 " fill="#e3e2e9" data-original="#201f2d" class=""/>
<polygon xmlns="http://www.w3.org/2000/svg" style="" points="0,312 0,424 88,464 176,424 176,312 88,352 " fill="#85bba7" data-original="#b53c33" class=""/>
<polygon xmlns="http://www.w3.org/2000/svg" style="" points="0,312 88,352 176,312 88,272 " fill="#5b87bf" data-original="#512869" class=""/>
<polygon xmlns="http://www.w3.org/2000/svg" style="" points="376,272 288,312 376,352 464,312 " fill="#e3e2e9" data-original="#201f2d" class=""/>
<polygon xmlns="http://www.w3.org/2000/svg" style="" points="288,312 288,424 376,464 464,424 464,312 376,352 " fill="#5b87bf" data-original="#512869" class=""/>
<g xmlns="http://www.w3.org/2000/svg">
	<polygon style="" points="288,312 376,352 464,312 376,272  " fill="#e3e2e9" data-original="#201f2d" class=""/>
	<polygon style="" points="232,0 144,40 232,80 320,40  " fill="#e3e2e9" data-original="#201f2d" class=""/>
</g>
<polygon xmlns="http://www.w3.org/2000/svg" style="" points="144,40 144,152 232,192 320,152 320,40 232,80 " fill="#dda137" data-original="#dda137" class=""/>
<polygon xmlns="http://www.w3.org/2000/svg" style="" points="144,40 232,80 320,40 232,0 " fill="#5b87bf" data-original="#512869" class=""/>
<g xmlns="http://www.w3.org/2000/svg">
	<rect x="376" y="72" style="" width="16" height="16" fill="#e3e2e9" data-original="#201f2d" class=""/>
	<rect x="344" y="72" style="" width="16" height="16" fill="#e3e2e9" data-original="#201f2d" class=""/>
	<rect x="408" y="72" style="" width="16" height="16" fill="#e3e2e9" data-original="#201f2d" class=""/>
	<rect x="440" y="72" style="" width="16" height="16" fill="#e3e2e9" data-original="#201f2d" class=""/>
	<rect x="440" y="104" style="" width="16" height="16" fill="#e3e2e9" data-original="#201f2d" class=""/>
	<rect x="440" y="136" style="" width="16" height="16" fill="#e3e2e9" data-original="#201f2d" class=""/>
	<rect x="440" y="168" style="" width="16" height="16" fill="#e3e2e9" data-original="#201f2d" class=""/>
	<rect x="440" y="200" style="" width="16" height="16" fill="#e3e2e9" data-original="#201f2d" class=""/>
	<rect x="440" y="232" style="" width="16" height="16" fill="#e3e2e9" data-original="#201f2d" class=""/>
	<rect x="440" y="264" style="" width="16" height="16" fill="#e3e2e9" data-original="#201f2d" class=""/>
	<rect x="72" y="72" style="" width="16" height="16" fill="#e3e2e9" data-original="#201f2d" class=""/>
	<rect x="104" y="72" style="" width="16" height="16" fill="#e3e2e9" data-original="#201f2d" class=""/>
	<rect x="40" y="72" style="" width="16" height="16" fill="#e3e2e9" data-original="#201f2d" class=""/>
	<rect x="8" y="72" style="" width="16" height="16" fill="#e3e2e9" data-original="#201f2d" class=""/>
	<rect x="8" y="104" style="" width="16" height="16" fill="#e3e2e9" data-original="#201f2d" class=""/>
	<rect x="8" y="136" style="" width="16" height="16" fill="#e3e2e9" data-original="#201f2d" class=""/>
	<rect x="8" y="168" style="" width="16" height="16" fill="#e3e2e9" data-original="#201f2d" class=""/>
	<rect x="8" y="200" style="" width="16" height="16" fill="#e3e2e9" data-original="#201f2d" class=""/>
	<rect x="8" y="232" style="" width="16" height="16" fill="#e3e2e9" data-original="#201f2d" class=""/>
	<rect x="8" y="264" style="" width="16" height="16" fill="#e3e2e9" data-original="#201f2d" class=""/>
	<rect x="192" y="440" style="" width="16" height="16" fill="#e3e2e9" data-original="#201f2d" class=""/>
	<rect x="224" y="440" style="" width="16" height="16" fill="#e3e2e9" data-original="#201f2d" class=""/>
	<rect x="256" y="440" style="" width="16" height="16" fill="#e3e2e9" data-original="#201f2d" class=""/>
</g>
<g xmlns="http://www.w3.org/2000/svg">
</g>
<g xmlns="http://www.w3.org/2000/svg">
</g>
<g xmlns="http://www.w3.org/2000/svg">
</g>
<g xmlns="http://www.w3.org/2000/svg">
</g>
<g xmlns="http://www.w3.org/2000/svg">
</g>
<g xmlns="http://www.w3.org/2000/svg">
</g>
<g xmlns="http://www.w3.org/2000/svg">
</g>
<g xmlns="http://www.w3.org/2000/svg">
</g>
<g xmlns="http://www.w3.org/2000/svg">
</g>
<g xmlns="http://www.w3.org/2000/svg">
</g>
<g xmlns="http://www.w3.org/2000/svg">
</g>
<g xmlns="http://www.w3.org/2000/svg">
</g>
<g xmlns="http://www.w3.org/2000/svg">
</g>
<g xmlns="http://www.w3.org/2000/svg">
</g>
<g xmlns="http://www.w3.org/2000/svg">
</g>
</g></svg>
