<svg id="Layer_1" height="512" viewBox="0 0 512 512" width="512" xmlns="http://www.w3.org/2000/svg" data-name="Layer 1"><path d="m410.82 358.68 15.79 64.1-64.1-15.79z" fill="#e48e66"/><path d="m159.92 282.87 39.24-39.23 70.29 70.29-127.44 127.44a10 10 0 0 1 -14.15 0l-56.15-56.15a10.007 10.007 0 0 1 0-14.14z" fill="#f8ec7d"/><path d="m281.29 161.5 60.69-60.68 32.18-32.19a10 10 0 0 1 14.15 0l56.15 56.15a10.007 10.007 0 0 1 0 14.14l-126.7 126.7-70.29-70.29z" fill="#f8ec7d"/><path d="m199.16 243.64-82.07-82.07 48.31-48.31 82.07 82.07 70.29 70.29 93.06 93.06-48.31 48.31-93.06-93.06z" fill="#6fe3ff"/><g fill="#e48e66"><path d="m312.34 198.55a5.979 5.979 0 0 1 -4.242-1.758l-31.05-31.049a6 6 0 1 1 8.484-8.486l31.05 31.05a6 6 0 0 1 -4.242 10.243z"/><path d="m362.08 126.92a5.984 5.984 0 0 1 -4.243-1.757l-20.1-20.1a6 6 0 0 1 8.487-8.485l20.1 20.1a6 6 0 0 1 -4.243 10.243z"/><path d="m190.97 319.91a5.978 5.978 0 0 1 -4.242-1.757l-31.05-31.04a6 6 0 0 1 8.484-8.486l31.05 31.04a6 6 0 0 1 -4.242 10.243z"/><path d="m137.11 396.79a5.982 5.982 0 0 1 -4.242-1.757l-14.82-14.82a6 6 0 1 1 8.484-8.485l14.821 14.819a6 6 0 0 1 -4.243 10.243z"/></g><path d="m133.92 242.46a5.979 5.979 0 0 1 -4.242-1.757l-67.31-67.3a6 6 0 0 1 .024-8.509l41.808-41.351a6 6 0 0 1 8.438 8.534l-37.52 37.106 63.043 63.034a6 6 0 0 1 -4.242 10.243z" fill="#e2d574"/><path d="m136.99 99.25-28.56 28.57-.01-.01-5.38 5.32-1.59-1.6-10.98-10.99a24.042 24.042 0 1 1 34.14-33.86l10.75 10.94z" fill="#e48e66"/><path d="m165.4 113.26-48.31 48.31-21.21-21.21 12.55-12.54 28.56-28.57 7.2-7.2z" fill="#f8ec7d"/></svg>