<svg id="Capa_1" enable-background="new 0 0 512 512" height="512" viewBox="0 0 512 512" width="512" xmlns="http://www.w3.org/2000/svg" xmlns:xlink="http://www.w3.org/1999/xlink"><linearGradient id="SVGID_1_" gradientUnits="userSpaceOnUse" x1="256" x2="256" y1="512" y2="0"><stop offset="0" stop-color="#c3ffe8"/><stop offset=".9973" stop-color="#f0fff4"/></linearGradient><linearGradient id="SVGID_2_" gradientUnits="userSpaceOnUse" x1="256" x2="256" y1="407" y2="105"><stop offset="0" stop-color="#9cffac"/><stop offset="1" stop-color="#00b59c"/></linearGradient><g><g><circle cx="256" cy="256" fill="url(#SVGID_1_)" r="256"/></g><g><g><path d="m149.385 122.765h44.423v62.177c0 3.817 2.438 7.199 6.047 8.423l53.351 17.773c1.788.601 3.799.602 5.588 0l53.351-17.773c3.609-1.223 6.047-4.606 6.047-8.423v-62.177h44.423c4.911 0 8.885-3.973 8.885-8.882s-3.974-8.883-8.885-8.883h-213.23c-4.911 0-8.885 3.973-8.885 8.882s3.974 8.883 8.885 8.883zm159.923 124.353c-4.902 0-8.885 3.981-8.885 8.882s3.982 8.882 8.885 8.882c4.911 0 8.885 3.973 8.885 8.882 0 4.901 3.982 8.882 8.885 8.882h43.913c-2.235-28.504-15.027-54.57-35.029-73.873v11.696c0 14.696-11.957 26.649-26.654 26.649zm-7.74 34.384c-10.932-3.322-18.915-13.497-18.915-25.502 0-14.694 11.956-26.647 26.654-26.647 4.902 0 8.885-3.981 8.885-8.882v-10.458c-.126.046-.22.136-.347.179l-53.438 17.8c-5.175 1.752-11.247 1.885-16.867-.018l-53.299-17.756c-4.549-1.542-8.253-4.386-11.276-7.788-14.587 11.979-25.929 27.383-33.262 44.688h17.45c11.583 0 21.465 7.425 25.135 17.765h10.403c11.583 0 21.465 7.425 25.135 17.765h28.174c14.698 0 26.654 11.953 26.654 26.647s-11.956 26.646-26.654 26.646c-4.902 0-8.885 3.981-8.885 8.882s3.983 8.882 8.885 8.882h17.769c21.447 0 39.39 15.275 43.523 35.515 30.132-18.965 50.887-51.384 53.758-88.81h-43.973c-12.008.002-22.186-7.978-25.509-18.908zm-27.799 89.969h-17.769c-14.698 0-26.654-11.953-26.654-26.647s11.956-26.647 26.654-26.647c4.902 0 8.885-3.981 8.885-8.882s-3.983-8.883-8.885-8.883h-35.538c-4.911 0-8.885-3.973-8.885-8.882 0-4.901-3.982-8.882-8.885-8.882h-17.769c-4.911 0-8.885-3.973-8.885-8.882 0-4.901-3.982-8.882-8.885-8.882h-23.442c-2.074 8.605-3.211 17.522-3.211 26.647 0 63.667 51.815 115.469 115.5 115.469 15.736 0 30.737-3.186 44.421-8.908-.015-14.684-11.963-26.621-26.652-26.621zm88.846-195.412c-4.902 0-8.885-3.981-8.885-8.882v-26.647h-17.769v26.647c0 14.694 11.956 26.647 26.654 26.647 4.911 0 8.885-3.973 8.885-8.882s-3.974-8.883-8.885-8.883z" fill="url(#SVGID_2_)"/></g></g></g></svg>