<svg id="Capa_1" enable-background="new 0 0 512 512" height="512" viewBox="0 0 512 512" width="512" xmlns="http://www.w3.org/2000/svg"><g><path d="m402.196 232.017c-9.042-30.31-37.115-52.414-70.365-52.414-12.831-29.142-41.946-49.499-75.832-49.499l-20.016 157.328 20.017 72.142h144.592c35.235 0 63.799-28.564 63.799-63.799 0-34.697-27.703-62.904-62.195-63.758z" fill="#ebebf0"/><path d="m180.168 179.603c-33.25 0-61.323 22.104-70.365 52.414-34.491.854-62.194 29.061-62.194 63.758 0 35.235 28.563 63.799 63.798 63.799h144.593v-229.47c-33.886 0-63.001 20.356-75.832 49.499z" fill="#fff5f5"/><path d="m321.775 484.755c36.326-36.326 36.326-95.223 0-131.549l-65.775-65.774-20.016 112.284 20.016 112.284c23.806 0 47.611-9.082 65.775-27.245z" fill="#6aa9ff"/><path d="m190.225 484.755c18.164 18.163 41.969 27.245 65.775 27.245v-224.568l-65.775 65.775c-36.326 36.325-36.326 95.222 0 131.548z" fill="#7ed8f6"/><path d="m346.043 127.202 21.213-21.213c-30.673-30.673-70.964-46.01-111.256-46.01l-10.008 14.83 10.008 15.156c32.609 0 65.218 12.413 90.043 37.237z" fill="#ffb655"/><path d="m409.682 63.563c-40.989-40.99-95.567-63.563-153.682-63.563l-10.008 14.809 10.008 15.191c50.102 0 97.146 19.453 132.469 54.775z" fill="#ffde55"/><path d="m165.957 127.202c24.825-24.825 57.434-37.237 90.043-37.236v-29.987c-40.291 0-80.582 15.336-111.256 46.009z" fill="#ffde55"/><path d="m102.318 63.563 21.213 21.213c35.323-35.323 82.367-54.776 132.469-54.776v-30c-58.115 0-112.693 22.573-153.682 63.563z" fill="#fff68e"/></g></svg>