<svg height="512pt" viewBox="-53 0 512 512" width="512pt" xmlns="http://www.w3.org/2000/svg"><path d="m26.484375 286.191406v172.84375c.023437 29.242188 23.722656 52.941406 52.964844 52.964844h247.171875c29.242187-.023438 52.941406-23.722656 52.964844-52.964844v-406.070312c-.023438-29.242188-23.722657-52.9414065-52.964844-52.964844h-247.171875c-29.242188.0234375-52.941407 23.722656-52.964844 52.964844zm0 0" fill="#35495e"/><path d="m379.585938 52.964844v406.070312c-.023438 29.242188-23.722657 52.941406-52.964844 52.964844h-123.585938v-512h123.585938c29.242187.0234375 52.941406 23.722656 52.964844 52.964844zm0 0" fill="#2c3e50"/><path d="m26.484375 286.191406v146.359375h353.101563v-353.101562h-353.101563zm0 0" fill="#90bae1"/><path d="m26.484375 286.191406v146.359375h176.550781v-353.101562h-176.550781zm0 0" fill="#b0d3f0"/><g fill="#2c2f38"><path d="m132.414062 52.964844c-.59375-.019532-1.183593-.078125-1.765624-.175782-.554688-.097656-1.089844-.277343-1.589844-.53125-.5625-.191406-1.101563-.457031-1.59375-.792968-.460938-.324219-.902344-.679688-1.320313-1.058594-1.613281-1.691406-2.527343-3.929688-2.558593-6.269531.015624-1.152344.253906-2.292969.707031-3.351563.425781-1.082031 1.054687-2.070312 1.851562-2.914062 2.527344-2.546875 6.34375-3.3125 9.65625-1.9375 3.308594 1.375 5.460938 4.617187 5.441407 8.203125.023437 2.351562-.898438 4.609375-2.558594 6.269531-1.664063 1.660156-3.921875 2.582031-6.269532 2.558594zm0 0"/><path d="m273.65625 52.964844h-97.105469c-4.875 0-8.828125-3.953125-8.828125-8.828125s3.953125-8.828125 8.828125-8.828125h97.105469c4.875 0 8.828125 3.953125 8.828125 8.828125s-3.953125 8.828125-8.828125 8.828125zm0 0"/><path d="m211.863281 485.515625h-17.65625c-4.875 0-8.828125-3.949219-8.828125-8.824219 0-4.878906 3.953125-8.828125 8.828125-8.828125h17.65625c4.875 0 8.828125 3.949219 8.828125 8.828125 0 4.875-3.953125 8.824219-8.828125 8.824219zm0 0"/></g><path d="m120.464844 380.121094-117.878906-117.878906c-3.449219-3.449219-3.449219-9.035157 0-12.484376l117.878906-117.875c3.445312-3.445312 9.035156-3.445312 12.484375 0l18.722656 18.726563c3.445313 3.445313 3.445313 9.035156 0 12.480469l-92.914063 92.910156 92.914063 92.914062c3.445313 3.445313 3.445313 9.035157 0 12.484376l-18.722656 18.722656c-3.449219 3.445312-9.039063 3.445312-12.484375 0zm0 0" fill="#2fa8cc"/><path d="m285.605469 380.121094 117.878906-117.878906c3.445313-3.449219 3.445313-9.035157 0-12.484376l-117.878906-117.875c-3.449219-3.445312-9.039063-3.445312-12.484375 0l-18.722656 18.726563c-3.445313 3.445313-3.445313 9.035156 0 12.480469l92.914062 92.910156-92.914062 92.914062c-3.445313 3.445313-3.445313 9.035157 0 12.484376l18.722656 18.722656c3.445312 3.445312 9.035156 3.445312 12.484375 0zm0 0" fill="#2fa8cc"/></svg>